<?xml version="1.0" encoding="UTF-8" standalone="no"?>
<svg
   preserveAspectRatio="none"
   style="display:block"
   viewBox="0 0 1858.9712 379.09039"
   fill="none"
   class="!h-8 !w-auto"
   fontcontrolled="false"
   version="1.1"
   id="svg8"
   width="1858.9712"
   height="379.09039"
   xmlns="http://www.w3.org/2000/svg"
   xmlns:svg="http://www.w3.org/2000/svg">
  <defs
     id="defs8" />
  <path
     fill="#fffefe"
     d="m 65.5212,0.43158832 c 35.881,-4.76500002 76.714,31.16999968 108.307,46.51399968 16.14,7.838 2.724,21.181 -2.107,31.09 -9.298,19.076 -19.519,7.538 -32.707,0.52 -22.814,-10.173 -55.87,-43.007 -81.587,-30.745 -17.396,8.294 -13.418,45.04 -13.431,62.106002 l -0.018,70.476 0.035,73.591 c 0.012,14.215 -0.169,28.47 0.408,42.671 0.189,4.635 1.749,8.048 5.241,11.143 11.196,9.936 20.209,2.519 26.384,-8.269 50.632,-88.45 101.796,-176.602 152.701,-264.893002 1.73,-3 4.513,-6.2 7.41,-8.06 0.956,-0.195 3.802,-0.595 4.503,-0.238 22.022,11.239 33.579,11.769 16.873,37.27 -5.674,8.662 -12.767,21.878 -17.672,30.266 -2.981,4.989 -11.708,18.072002 -11.29,23.144002 2.756,7.29 21.034,18.738 28.099,16.96 5.192,-1.306 16.356,-23.094 19.55,-28.139 32.751,21.574 68.102,30.542 72.014,77.313 4.497,53.771 -37.693,69.733 -76.111,91.966 a 6866.503,6866.503 0 0 1 -87.198,49.914 c -26.897,15.224 -53.435,31.563 -80.468,46.175 -42.346,22.889 -99.0420004,-6.674 -103.1760004,-55.024 -1.34899997,-15.773 -0.68099997,-32.529 -0.63199997,-48.347 l 0.078,-84.199 -0.481,-81.2 c -0.038,-13.985002 -0.94,-30.165002 0.96599997,-43.864002 C 6.1161996,23.351588 32.1932,4.1995883 65.5212,0.43258832 Z M 165.0202,294.15459 c 6.139,-5.476 28.491,-42.283 28.967,-49.602 -2.094,-7.83 -19.382,-17.86 -26.857,-18.917 -8.208,4.169 -15.095,19.715 -19.895,27.653 -12.986,21.475 -15.991,26.072 8.714,37.846 3.687,1.79 4.434,2.455 9.071,3.02 z m 45.852,-79.682 c 6.616,-5.554 27.727,-41.249 28.717,-48.718 -1.387,-8.876 -21.097,-19.671 -28.753,-18.953 -5.816,5.311 -27.881,42.248 -28.338,49.379 2.249,8.028 20.375,17.937 28.374,18.292 z"
     id="path1" />
  <path
     fill="#fffefe"
     d="m 393.5832,95.717588 c 24.363,0.404 50.225,-0.274 74.356,0.315 65.825,1.607 102.928,46.505002 92.833,111.348002 -3.285,21.099 -10.326,34.411 -24.969,49.844 -36.255,31.938 -94.99,24.913 -142.198,25.171 -1.719,-26.026 -0.499,-65.876 -0.511,-92.694 -0.012,-27.356 -1.239,-67.438 0.489,-93.984002 z m 41.679,149.276002 c 23.94,0.187 49.927,2.92 69.06,-13.838 12.494,-12.654 16.011,-25.279 15.768,-42.727 -0.786,-56.429 -42.274,-56.59 -85.152,-56.327 1.342,14.796 0.758,41.785 0.579,57.319 -0.186,16.169 0.743,40.091 -0.255,55.573 z"
     id="path2" />
  <path
     fill="#fffefe"
     d="m 1279.1222,95.304588 c 42.03,1.844 133.72,-15.895 124.2,60.413002 -1.83,14.702 -12.17,22.691 -24.74,29.163 32.61,10.711 44.28,37.423 30.27,68.774 -17.15,32.22 -52.62,28.945 -84.01,28.88 -15.12,-0.142 -30.25,-0.072 -45.37,0.211 -1.15,-16.969 -0.29,-46.12 -0.28,-64.052 z m 88.54,144.797002 c 4.93,-6.434 5.85,-11.706 4.89,-19.729 -2.45,-20.426 -38.24,-16.448 -52.85,-16.214 l 0.08,42.092 c 15.52,0.239 35.17,2.587 47.88,-6.149 z m -47.86,-69.077 c 12.95,0.073 27.72,1.449 39.04,-5.149 1.38,-1.607 3.68,-4.31 4.17,-6.374 7.56,-32.353 -22.02,-28.697 -43.3,-28.339 z"
     id="path3" />
  <path
     fill="#fffefe"
     d="m 978.4622,163.21959 c 1.87,-2.908 5.34,-7.199 7.82,-9.612 a 61.956,61.956 0 0 1 43.85,-17.286 c 14.73,0.251 29.6,4.672 39.97,15.555 18.7,19.621 15.02,49.725 15.07,74.722 0.18,18.569 0.18,37.138 0,55.706 l -40.44,0.014 c -1.26,-16.021 -1.11,-41.324 -0.48,-61.663 0.83,-27.037 -2.61,-69.29 -43.94,-41.499 -12.56,8.448 -8.81,51.878 -8.68,70.367 0.06,10.887 0.05,21.774 -0.02,32.66 -13.59,0.155 -27.19,0.222 -40.79,0.199 -0.75,-19.383 0.3,-39.14 -0.08,-58.548 -0.26,-13.693 1.54,-28.522 -3.87,-41.392 -6.59,-15.755 -26.8,-14.149 -37.4,-3.865 -6.316,6.123 -9.613,16.272 -9.718,24.96 -0.316,26.129 0.281,52.593 0.075,78.703 l -40.045,0.023 c -1.5,-41.153 -1.13,-102.299 0.031,-143.56 l 39.987,-0.35 -0.228,16.135 c 10.788,-11.362 17.898,-15.367 33.248,-18.166 20.92,-1.641 35.52,9.64 45.64,26.897 z"
     id="path4" />
  <path
     fill="#fffefe"
     d="m 1499.9822,135.08259 c 41.38,-4.378 78.51,25.538 83.03,66.903 4.52,41.364 -25.27,78.592 -66.62,83.254 -41.55,4.685 -79,-25.28 -83.54,-66.846 -4.54,-41.566 25.55,-78.912 67.13,-83.311 z m 15.32,113.855 c 6.58,-2.071 10.98,-4.033 16.05,-9.017 17.97,-17.657 15.25,-53.513 -8.11,-65.421 -8.14,-4.145 -14.08,-3.938 -22.85,-3.337 -44.26,15.915 -33.59,83.724 14.91,77.775 z"
     id="path5" />
  <path
     fill="#fffefe"
     d="m 1175.5722,136.43859 c 2.51,-0.155 5.02,-0.238 7.54,-0.249 16.24,0.01 33.94,4.092 45.74,15.897 17.66,17.662 14.03,48.26 13.96,71.423 l -0.08,58.552 c -10.51,0.705 -26.93,0.235 -37.88,0.271 -0.64,-7.043 -0.83,-10.158 -0.26,-17.17 a 57.451,57.451 0 0 1 -4.12,4.47 c -23.69,22.851 -56.88,17.438 -78.57,-5.161 -6.13,-9.124 -9.03,-17.855 -8.96,-28.87 0.31,-48.881 56.05,-43.865 89.9,-43.726 -0.7,-4.051 -1.51,-10.014 -3.78,-13.351 -13.89,-20.443 -47.24,-5.85 -62.63,4.36 l -17.74,-26.272 c 19.73,-13.314 33.57,-17.669 56.88,-20.174 z m -8.55,84.701 c -28.67,8.865 -8.87,37.684 18.41,28.158 a 65.87,65.87 0 0 0 1.84,-0.668 c 13.61,-8.063 14.24,-12.713 14.69,-27.882 -10.42,0.009 -24.85,-0.365 -34.94,0.392 z m -410.712,-84.712 a 85.912,85.912 0 0 1 6.152,-0.244 c 16.927,-0.011 34.395,3.499 46.825,15.772 17.52,17.299 14.036,46.331 14.019,69.027 l -0.069,61.091 c -10.756,0.681 -26.774,0.233 -37.927,0.272 -0.562,-5.315 -0.458,-11.559 -0.497,-16.99 a 51.24,51.24 0 0 1 -3.517,3.936 c -23.444,23.496 -56.492,17.607 -78.561,-4.482 -6.118,-8.441 -9.762,-19.998 -9.381,-30.347 1.768,-48.01 57.669,-42.72 90.051,-42.589 -0.703,-4.24 -1.451,-10.053 -3.856,-13.559 -13.67,-19.932 -47.182,-5.843 -62.292,4.516 -5.853,-7.799 -12.431,-17.963 -18.038,-26.143 19.805,-13.357 33.638,-17.784 57.091,-20.26 z m 11.744,112.148 c 13.461,-8.244 13.771,-12.619 14.84,-27.81 -10.743,-0.007 -25.558,-0.401 -35.941,0.435 -29.006,10.561 -6.172,37.999 20.276,27.705 0.276,-0.107 0.551,-0.217 0.825,-0.33 z"
     id="path6" />
  <path
     fill="#fffefe"
     d="m 1799.0922,136.42659 c 20.39,-2.119 40.12,5.903 56.94,16.637 -4.09,8.111 -10.57,20 -15.4,27.453 -14.27,-9.487 -53.22,-22.687 -55.16,-3.573 -2.01,19.74 79.88,14.803 73.1,61.891 -5.64,39.166 -30.78,46.502 -65.07,44.967 -22.43,-2.73 -36.98,-9.588 -55.05,-22.091 5.23,-8.22 11.75,-18.354 18.07,-25.637 11.06,8.019 23.87,15.028 37.72,16.59 8.89,1.003 25.43,1.903 26.59,-10.535 -1.89,-10.576 -30.3,-18.88 -40.14,-22.175 -28.32,-9.485 -43.72,-35.537 -25.68,-62.582 9.75,-14.617 26.62,-19.253 44.08,-20.945 z m -139.44,0.009 c 23.29,-0.849 37.17,4.25 57.04,16.458 -2.49,6.095 -11.71,21.773 -15.24,27.637 -6.06,-3.934 -12.35,-7.709 -19.24,-9.979 -9.68,-3.186 -32.47,-6.605 -36.48,5.946 0.03,20.663 79.34,15.633 73.72,61.336 -4.84,39.355 -30.05,47.323 -64.95,46.011 -22.87,-2.887 -36.82,-9.399 -55.29,-22.074 5.78,-9.2 11.28,-16.979 17.63,-25.804 21.02,14.063 30.87,17.898 56.06,16.874 3.84,-2.827 8.35,-5.487 8.54,-10.704 -4.75,-20.779 -71.24,-18.561 -72.78,-55.203 -1.45,-34.549 20.01,-47.399 50.99,-50.498 z"
     id="path7" />
  <path
     fill="#fffefe"
     d="m 673.2892,136.24159 2.636,0.503 c 1.834,4.582 1.061,31.137 0.983,37.173 -47.075,-0.462 -43.31,34.41 -43.049,69.754 0.187,12.86 0.205,25.721 0.055,38.582 l -40.074,0.004 -0.33,-12.669 c -0.014,-42.836 -0.73,-88.258 0.376,-130.879 l 40.039,-0.372 -0.237,18.72 c 12.205,-12.782 22.53,-17.618 39.601,-20.816 z"
     id="path8" />
</svg>
